<svg xmlns="http://www.w3.org/2000/svg" viewBox="0 0 64 64" role="img" aria-label="KITTY badge favicon">
  <!-- Outer glow ring -->
  <circle cx="32" cy="32" r="30" fill="#050814" stroke="#16e0ff" stroke-width="2" />
  <circle cx="32" cy="32" r="30" fill="none" stroke="url(#glow)" stroke-width="3" opacity="0.45" />

  <!-- Inner badge -->
  <circle cx="32" cy="32" r="22" fill="#0b1224" stroke="#6ee7ff" stroke-width="1.6" />

  <!-- Cat ears -->
  <path d="M19 26 L22 16 L27 25" fill="none" stroke="#16e0ff" stroke-width="2" stroke-linecap="round" stroke-linejoin="round"/>
  <path d="M45 26 L42 16 L37 25" fill="none" stroke="#16e0ff" stroke-width="2" stroke-linecap="round" stroke-linejoin="round"/>

  <!-- Cat face -->
  <ellipse cx="32" cy="30" rx="13" ry="11" fill="none" stroke="#16e0ff" stroke-width="2"/>
  <ellipse cx="27" cy="29" rx="2.2" ry="2.8" fill="#16e0ff"/>
  <ellipse cx="37" cy="29" rx="2.2" ry="2.8" fill="#16e0ff"/>
  <path d="M30 34 L32 36.5 L34 34" fill="none" stroke="#16e0ff" stroke-width="1.6" stroke-linecap="round" stroke-linejoin="round"/>
  <path d="M24 32 L18 30 M24 34.5 L18 36" fill="none" stroke="#16e0ff" stroke-width="1.4" stroke-linecap="round"/>
  <path d="M40 32 L46 30 M40 34.5 L46 36" fill="none" stroke="#16e0ff" stroke-width="1.4" stroke-linecap="round"/>

  <!-- HUD bars -->
  <rect x="22" y="42" width="8" height="2" rx="1" fill="#6ee7ff" opacity="0.7"/>
  <rect x="34" y="42" width="8" height="2" rx="1" fill="#6ee7ff" opacity="0.7"/>

  <defs>
    <linearGradient id="glow" x1="0" x2="1" y1="0" y2="1">
      <stop offset="0%" stop-color="#16e0ff" stop-opacity="0.8" />
      <stop offset="50%" stop-color="#a855f7" stop-opacity="0.6" />
      <stop offset="100%" stop-color="#16e0ff" stop-opacity="0.8" />
    </linearGradient>
  </defs>
</svg>
